# xmcd
#
# Track frame offsets: 
#        150
#        12932
#        28810
#        41298
#        56006
#        68748
#        80434
#        93610
#        106027
#        117849
#        132626
#        142600
#        153447
#        167862
#        179082
#        189898
#
# Disc length: 2687 seconds
#
# Revision: 2
# Processed by: cddbd v1.5.2PL0 Copyright (c) Steve Scherf et al.
# Submitted via: ExactAudioCopyFreeDBPlugin 1.0
#
DISCID=d00a7d10
DTITLE=Various Artist - Letter To Heaven
DYEAR=2004
DGENRE=Country
TTITLE0=When God Comes And Gathers His Jewels - Hank Williams
TTITLE1=Mama Sang A Song - Bill Anderson
TTITLE2=A Satisfied Mind - Porter Wagoner
TTITLE3=All God's Lonely Children - Kenny Rogers and The First Edition
TTITLE4=Love Lifted Me - Jordanaires
TTITLE5=Chapel In The Valley - Roy Rogers
TTITLE6=Sunday After Church - Jeannie C. Riley
TTITLE7=(I Walk That) Lonesome Valley - Elvis Presley and The Million Do
TTITLE7=llar Quartet
TTITLE8=Letter To Heaven - Dolly Parton
TTITLE9=Both Sides Now - Anne Murray
TTITLE10=You've Got To Walk That Lonesome Valley - Bill Monroe
TTITLE11=Will The Circle Be Unbroken - Jerry Lee Lewis
TTITLE12=Peace In The Valley - Red Foley
TTITLE13=Dear God, I Go To Church On A Sunday - Patsy Cline
TTITLE14=Belshazzar - Johnny Cash
TTITLE15=There's A Gold Mine In The Sky - Gene Autry
EXTD=YEAR: 2004
EXTT0=Hank Williams
EXTT1=Bill Anderson
EXTT2=Porter Wagoner
EXTT3=Kenny Rogers and The First Edition
EXTT4=The Jordanaires
EXTT5=Roy Rogers
EXTT6=Jeannie C Riley
EXTT7=Elvis Presley (with The Million Doller Quartet)
EXTT8=Dolly Parton
EXTT9=Anne Murray
EXTT10=Bill Monroe
EXTT11=Jerry Lee Lewis
EXTT12=Red Foley
EXTT13=Patsy Cline
EXTT14=Johnny Cash
EXTT15=Gene Autry
PLAYORDER=
